# This file uses centimeters as units for non-parametric coordinates.

mtllib Mirro_All.mtl
g default
v -216.506058 -84.855019 3.205250
v -217.013916 -84.334999 3.170126
v -217.715332 -84.780563 2.735722
v -218.000000 -84.939812 1.979775
v -217.694565 -85.689674 2.004118
v -216.956512 -86.000000 2.028326
v -216.475342 -85.762703 2.748966
v -215.279358 -85.069336 3.254491
v 216.506058 -84.855019 3.205250
v 215.279358 -85.069336 3.254491
v 216.456833 -85.761353 2.744444
v 216.931808 -86.000000 2.006868
v 217.687134 -85.695259 2.002189
v 218.000000 -84.959526 1.997537
v 217.717331 -84.792648 2.739518
v 217.013916 -84.334999 3.170126
v -216.506058 84.855019 3.205250
v -215.279358 85.069336 3.254491
v -216.456833 85.761353 2.744444
v -216.931808 86.000000 2.006868
v -217.687134 85.695259 2.002189
v -218.000000 84.959526 1.997537
v -217.717331 84.792648 2.739518
v -217.013916 84.334999 3.170126
v 216.506058 84.855019 3.205250
v 217.013916 84.334999 3.170126
v 217.715332 84.780563 2.735722
v 218.000000 84.939812 1.979775
v 217.694565 85.689674 2.004118
v 216.956512 86.000000 2.028326
v 216.475342 85.762703 2.748966
v 215.279358 85.069336 3.254491
v -217.681793 84.912155 -6.060085
v -218.000000 84.913574 -5.291874
v -217.681793 85.681793 -5.291874
v -216.913574 86.000000 -5.291874
v -216.913010 85.681793 -6.060090
v -216.913574 84.913574 -6.378295
v 217.681793 84.912766 -6.060089
v 216.913574 84.913574 -6.378295
v 216.912262 85.681793 -6.060086
v 216.913574 86.000000 -5.291874
v 217.681793 85.681793 -5.291874
v 218.000000 84.913574 -5.291874
v -217.681793 -85.681793 -5.291874
v -218.000000 -84.913574 -5.291874
v -217.681793 -84.912766 -6.060089
v -216.913574 -84.913574 -6.378295
v -216.912262 -85.681793 -6.060086
v -216.913574 -86.000000 -5.291874
v 217.681793 -85.681793 -5.291874
v 216.913574 -86.000000 -5.291874
v 216.913010 -85.681793 -6.060090
v 216.913574 -84.913574 -6.378295
v 217.681793 -84.912155 -6.060085
v 218.000000 -84.913574 -5.291874
v -201.161346 -73.308601 0.420637
v -200.389999 -73.608269 0.383292
v -200.263885 -73.129250 -0.252029
v -200.251678 -72.344444 -0.503551
v -201.022552 -72.394943 -0.230649
v -201.480240 -72.583534 0.457038
v 201.161346 -73.308601 0.420637
v 201.480240 -72.583534 0.457038
v 201.020538 -72.391678 -0.230975
v 200.245529 -72.338295 -0.503551
v 200.260681 -73.127220 -0.252295
v 200.389999 -73.608269 0.383292
v 201.161346 73.308601 0.420637
v 200.389999 73.608269 0.383292
v 200.263885 73.129250 -0.252029
v 200.251678 72.344444 -0.503551
v 201.022552 72.394943 -0.230649
v 201.480240 72.583534 0.457038
v -201.161346 73.308601 0.420637
v -201.480240 72.583534 0.457038
v -201.020538 72.391678 -0.230975
v -200.245529 72.338295 -0.503551
v -200.260681 73.127220 -0.252295
v -200.389999 73.608269 0.383292
v -207.209702 -78.584991 5.399998
v -206.488235 -78.923782 5.364591
v -205.529343 -78.197853 5.421376
v -204.648834 -77.479202 5.116699
v -205.622070 -77.217819 5.163627
v -206.024628 -76.584373 5.203032
v -206.756332 -77.190727 5.469453
v -207.507889 -77.765732 5.437314
v -201.667999 -73.931587 2.230613
v -201.969925 -73.172173 2.212541
v -202.314316 -73.529961 2.890777
v -202.916245 -74.058762 3.407812
v -202.600296 -74.857521 3.443637
v -201.836197 -75.187805 3.478821
v -201.274292 -74.643478 2.963011
v -200.938721 -74.245995 2.248385
v -201.667999 73.931587 2.230613
v -200.938721 74.245995 2.248385
v -201.276154 74.637985 2.957761
v -201.842026 75.176308 3.470602
v -202.609711 74.847275 3.442605
v -202.927277 74.052124 3.414188
v -202.319931 73.526161 2.895021
v -201.969925 73.172173 2.212541
v -207.209702 78.584991 5.399998
v -207.507889 77.765732 5.437314
v -206.757645 77.196037 5.469583
v -206.029190 76.594498 5.205671
v -205.647934 77.238998 5.173076
v -204.726456 77.505234 5.135305
v -205.567627 78.207825 5.423777
v -206.488235 78.923782 5.364591
v 207.209702 -78.584991 5.399998
v 207.507889 -77.765732 5.437314
v 206.757645 -77.196037 5.469583
v 206.029190 -76.594498 5.205671
v 205.647934 -77.238998 5.173076
v 204.726456 -77.505234 5.135305
v 205.567627 -78.207825 5.423777
v 206.488235 -78.923782 5.364591
v 201.667999 -73.931587 2.230613
v 200.938721 -74.245995 2.248385
v 201.276154 -74.637985 2.957761
v 201.842026 -75.176308 3.470602
v 202.609711 -74.847275 3.442605
v 202.927277 -74.052124 3.414188
v 202.319931 -73.526161 2.895021
v 201.969925 -73.172173 2.212541
v 207.209702 78.584991 5.399998
v 206.488235 78.923782 5.364591
v 205.529343 78.197853 5.421376
v 204.648834 77.479202 5.116699
v 205.622070 77.217819 5.163627
v 206.024628 76.584373 5.203032
v 206.756332 77.190727 5.469453
v 207.507889 77.765732 5.437314
v 201.667999 73.931587 2.230613
v 201.969925 73.172173 2.212541
v 202.314316 73.529961 2.890777
v 202.916245 74.058762 3.407812
v 202.600296 74.857521 3.443637
v 201.836197 75.187805 3.478821
v 201.274292 74.643478 2.963011
v 200.938721 74.245995 2.248385
v -217.357849 -85.463303 2.742490
v 217.353439 -85.466064 2.742298
v -217.353439 85.466064 2.742298
v 217.357849 85.463303 2.742490
v -217.540390 85.540054 -5.918925
v 217.540085 85.540291 -5.918928
v -217.540085 -85.540291 -5.918928
v 217.540390 -85.540054 -5.918925
v -200.900589 -73.019341 -0.123974
v 200.899124 -73.017845 -0.124298
v 200.900589 73.019341 -0.123974
v -200.899124 73.017845 -0.124298
v -206.398239 -77.907890 5.446178
v -202.008286 -74.317200 2.926383
v -202.012527 74.311401 2.925157
v -206.409500 77.916786 5.447454
v 206.409500 -77.916786 5.447454
v 202.012527 -74.311401 2.925157
v 206.398239 77.907890 5.446178
v 202.008286 74.317200 2.926383
vt 0.375000 0.001567
vt 0.349026 0.001623
vt 0.375598 0.975663
vt 0.624388 0.975087
vt 0.650433 0.001082
vt 0.375000 0.248576
vt 0.375835 0.250000
vt 0.375612 0.274913
vt 0.624208 0.250000
vt 0.650640 0.248459
vt 0.154221 0.001623
vt 0.375623 0.470837
vt 0.624377 0.470837
vt 0.845837 0.248421
vt 0.845779 0.001623
vt 0.624377 0.779163
vt 0.375623 0.748421
vt 0.624377 0.748421
vt 0.375661 0.000000
vt 0.375597 0.001638
vt 0.624335 0.000000
vt 0.625000 0.001762
vt 0.625000 0.248210
vt 0.375601 0.248351
vt 0.624339 0.250000
vt 0.375665 0.250000
vt 0.375759 0.000000
vt 0.624199 0.000000
vt 0.375688 0.000000
vt 0.375000 0.248625
vt 0.375000 0.001631
vt 0.375000 0.001810
vt 0.375000 0.248219
vt 0.624353 0.000000
vt 0.375688 0.000000
vt 0.375647 0.250000
vt 0.624356 0.250000
vt 0.375000 0.248307
vt 0.375715 0.250000
vt 0.624240 0.250000
vt 0.375714 0.250000
vt 0.625000 0.001375
vt 0.625000 0.248487
vt 0.624285 0.000000
vt 0.625000 0.001692
vt 0.625000 0.248190
vt 0.625000 0.001761
vt 0.625000 0.248354
vt 0.624312 0.250000
vt 0.624312 0.250000
vt 0.624399 0.001648
vt 0.624403 0.248362
vt 0.624402 0.274337
vt 0.375623 0.501579
vt 0.624377 0.501579
vt 0.375623 0.779163
vt 0.349837 0.248488
vt 0.154163 0.248421
vt 0.375000 0.001631
vt 0.375000 0.248246
vt 0.624286 0.000000
vt 0.625000 0.248376
vt 0.375792 0.000000
vt 0.624165 0.000000
vt 0.625000 0.001424
vt 0.625000 0.248433
vt 0.375801 0.250000
vt 0.375000 0.001513
vt 0.375644 0.000000
vt 0.625000 0.001781
vt 0.375000 0.001790
vt 0.375000 0.248238
vt 0.375323 0.000783
vt 0.356702 0.001577
vt 0.375000 0.926608
vt 0.301608 -0.000000
vt 0.375536 -0.000000
vt 0.375536 1.000000
vt 0.624660 0.000712
vt 0.624457 1.000000
vt 0.624457 -0.000000
vt 0.698298 -0.000000
vt 0.625000 0.926702
vt 0.642935 0.001159
vt 0.375340 0.249288
vt 0.375693 0.268271
vt 0.301702 0.250000
vt 0.375000 0.323298
vt 0.357255 0.248538
vt 0.624677 0.249217
vt 0.643063 0.248481
vt 0.625000 0.323392
vt 0.698392 0.250000
vt 0.624327 0.267849
vt 0.125000 0.249059
vt 0.375000 0.500941
vt 0.375000 0.462471
vt 0.162529 0.250000
vt 0.375623 0.480223
vt 0.625000 0.500940
vt 0.875000 0.249060
vt 0.624377 0.480223
vt 0.837493 0.250000
vt 0.625000 0.462493
vt 0.162507 -0.000000
vt 0.375000 0.787507
vt 0.375000 0.749060
vt 0.125000 0.000940
vt 0.375623 0.769777
vt 0.625000 0.787529
vt 0.837471 -0.000000
vt 0.624377 0.769777
vt 0.875000 0.000941
vt 0.625000 0.749059
vt 0.375145 0.000449
vt 0.375684 0.000639
vt 0.375223 0.001899
vt 0.624854 0.000444
vt 0.624775 0.001887
vt 0.624313 0.000623
vt 0.624855 0.249551
vt 0.624316 0.249361
vt 0.624777 0.248101
vt 0.375146 0.249556
vt 0.375225 0.248113
vt 0.375687 0.249377
vt 0.375409 0.000662
vt 0.375744 -0.000000
vt 0.375267 0.000710
vt 0.375000 0.001536
vt 0.375148 0.000428
vt 0.375000 0.001691
vt 0.375324 0.000684
vt 0.375693 -0.000000
vt 0.375150 0.249584
vt 0.375706 0.250000
vt 0.375335 0.249266
vt 0.375000 0.248277
vt 0.375431 0.249398
vt 0.375000 0.248503
vt 0.375284 0.249268
vt 0.375776 0.250000
vt 0.624569 0.000602
vt 0.625000 0.001497
vt 0.624716 0.000732
vt 0.624223 -0.000000
vt 0.624850 0.000416
vt 0.624294 -0.000000
vt 0.624665 0.000736
vt 0.625000 0.001726
vt 0.624591 0.249338
vt 0.624255 0.250000
vt 0.624733 0.249294
vt 0.625000 0.248468
vt 0.624852 0.249572
vt 0.625000 0.248303
vt 0.624676 0.249310
vt 0.624307 0.250000
vt 0.375000 0.000000
vt 0.375000 1.000000
vt 0.625000 1.000000
vt 0.625000 0.000000
vt 0.375000 0.250000
vt 0.625000 0.250000
vt 0.125000 0.250000
vt 0.375000 0.500000
vt 0.625000 0.500000
vt 0.875000 0.250000
vt 0.125000 0.000000
vt 0.375000 0.750000
vt 0.625000 0.750000
vt 0.875000 0.000000
vt 0.375000 0.000000
vt 0.625000 0.000000
vt 0.625000 0.250000
vt 0.375000 0.250000
vt 0.375000 0.000000
vt 0.375000 0.000000
vt 0.375000 0.250000
vt 0.375000 0.250000
vt 0.625000 0.000000
vt 0.625000 0.000000
vt 0.625000 0.250000
vt 0.625000 0.250000
vn -0.144603 -0.178260 0.973300
vn -0.110685 -0.163171 0.980369
vn -0.282917 -0.000821 0.959144
vn -0.225837 -0.000416 0.974165
vn -0.000718 -0.423000 0.906129
vn -0.000070 -0.318288 0.947994
vn -0.999669 -0.001994 0.025667
vn -0.935739 -0.001495 0.352691
vn -0.999678 0.002072 0.025284
vn -0.934375 0.001446 0.356289
vn -0.525707 -0.001780 0.850664
vn -0.521256 0.001832 0.853398
vn -0.279020 0.000767 0.960285
vn -0.388207 -0.921194 0.026403
vn -0.381763 -0.924034 -0.020441
vn -0.000848 -0.999949 0.010031
vn -0.000673 -0.999277 -0.038019
vn -0.925778 -0.375739 0.041893
vn -0.926022 -0.376926 -0.020270
vn -0.999249 -0.001755 -0.038717
vn -0.001655 -0.587568 0.809173
vn 0.000740 -0.427535 0.903999
vn 0.001615 -0.591749 0.806121
vn -0.000191 -0.949798 0.312864
vn 0.000209 -0.951394 0.307977
vn 0.000814 -0.999949 0.010098
vn 0.144545 -0.178905 0.973191
vn 0.110832 -0.163301 0.980331
vn 0.000073 -0.318069 0.948068
vn 0.279020 -0.000767 0.960285
vn 0.226325 -0.000385 0.974052
vn 0.919498 -0.390761 0.042762
vn 0.923298 -0.383542 -0.020413
vn 0.999678 -0.002072 0.025284
vn 0.999274 -0.001706 -0.038048
vn 0.374174 -0.927002 0.025715
vn 0.375420 -0.926639 -0.020009
vn 0.000697 -0.999245 -0.038843
vn 0.521257 -0.001832 0.853398
vn 0.282917 0.000821 0.959144
vn 0.525707 0.001780 0.850664
vn 0.934374 -0.001446 0.356289
vn 0.935739 0.001495 0.352691
vn 0.999669 0.001994 0.025667
vn -0.144545 0.178905 0.973191
vn -0.110832 0.163301 0.980331
vn -0.000740 0.427535 0.903999
vn -0.000073 0.318069 0.948068
vn -0.226325 0.000385 0.974052
vn -0.000814 0.999949 0.010099
vn -0.000209 0.951397 0.307968
vn 0.000848 0.999949 0.010030
vn 0.000191 0.949797 0.312867
vn -0.001615 0.591748 0.806121
vn 0.001655 0.587568 0.809174
vn 0.000718 0.423000 0.906129
vn -0.919498 0.390761 0.042762
vn -0.923298 0.383542 -0.020413
vn -0.999274 0.001706 -0.038048
vn -0.374174 0.927002 0.025715
vn -0.375420 0.926639 -0.020009
vn -0.000697 0.999245 -0.038843
vn 0.144603 0.178260 0.973300
vn 0.110685 0.163171 0.980369
vn 0.225837 0.000416 0.974165
vn 0.000070 0.318288 0.947994
vn 0.388207 0.921194 0.026403
vn 0.381763 0.924034 -0.020441
vn 0.000673 0.999277 -0.038020
vn 0.925778 0.375739 0.041893
vn 0.926022 0.376926 -0.020270
vn 0.999249 0.001755 -0.038717
vn -0.923893 0.001799 -0.382647
vn -0.923894 -0.001804 -0.382644
vn -0.382688 0.000929 -0.923877
vn -0.000730 0.001863 -0.999998
vn -0.382684 -0.000930 -0.923879
vn -0.000731 -0.001862 -0.999998
vn -0.000365 0.382684 -0.923879
vn 0.000731 0.001862 -0.999998
vn 0.000364 0.382689 -0.923877
vn -0.000709 0.923877 -0.382689
vn 0.000707 0.923891 -0.382656
vn 0.382684 0.000930 -0.923879
vn 0.000730 -0.001863 -0.999998
vn 0.382688 -0.000929 -0.923877
vn 0.923894 0.001804 -0.382644
vn 0.923893 -0.001799 -0.382647
vn -0.000707 -0.923892 -0.382653
vn 0.000709 -0.923880 -0.382681
vn -0.000364 -0.382686 -0.923878
vn 0.000365 -0.382681 -0.923881
vn 0.000425 0.925208 0.379461
vn 0.348320 0.836317 0.423376
vn 0.000931 0.912521 0.409029
vn 0.340215 0.817940 0.463926
vn 0.946260 0.001069 0.323405
vn 0.926044 0.003000 0.377403
vn 0.850805 0.350359 0.391638
vn 0.824547 0.340187 0.452101
vn 0.000707 0.001745 0.999998
vn 0.000348 0.305194 0.952290
vn -0.000707 0.001747 0.999998
vn -0.000355 0.303451 0.952847
vn 0.000330 0.798433 0.602083
vn -0.000330 0.797337 0.603534
vn -0.000427 0.925056 0.379831
vn 0.832381 0.000774 0.554204
vn 0.946350 -0.001065 0.323141
vn 0.831377 -0.000779 0.555708
vn 0.333667 0.000930 0.942691
vn 0.331732 -0.000950 0.943373
vn 0.000707 -0.001747 0.999998
vn -0.946350 0.001065 0.323141
vn -0.850663 0.350281 0.392014
vn -0.925360 0.002991 0.379078
vn -0.824504 0.339645 0.452587
vn -0.000934 0.913104 0.407726
vn -0.348271 0.836136 0.423773
vn -0.340845 0.817933 0.463476
vn -0.331732 0.000950 0.943373
vn -0.000707 -0.001745 0.999998
vn -0.333667 -0.000930 0.942691
vn -0.831377 0.000779 0.555708
vn -0.832381 -0.000774 0.554204
vn -0.946260 -0.001069 0.323405
vn -0.000425 -0.925208 0.379461
vn -0.348320 -0.836317 0.423376
vn -0.000931 -0.912520 0.409030
vn -0.340215 -0.817940 0.463926
vn -0.926044 -0.003000 0.377403
vn -0.850805 -0.350359 0.391638
vn -0.824547 -0.340187 0.452101
vn -0.000348 -0.305194 0.952290
vn 0.000355 -0.303451 0.952847
vn -0.000330 -0.798433 0.602083
vn 0.000330 -0.797337 0.603534
vn 0.000427 -0.925056 0.379831
vn 0.850663 -0.350281 0.392014
vn 0.925360 -0.002991 0.379078
vn 0.824504 -0.339645 0.452587
vn 0.000934 -0.913104 0.407726
vn 0.348271 -0.836136 0.423773
vn 0.340845 -0.817933 0.463476
vn 0.000833 0.488182 0.872741
vn 0.000229 0.029168 0.999574
vn -0.000824 0.485785 0.874078
vn -0.000223 0.023837 0.999716
vn 0.257278 0.264482 0.929439
vn 0.280914 0.328235 0.901859
vn 0.444538 0.001443 0.895759
vn 0.511656 0.000900 0.859190
vn 0.000263 0.589944 0.807444
vn 0.070081 0.000293 0.997541
vn 0.069433 -0.000290 0.997587
vn 0.443075 -0.001478 0.896483
vn 0.720214 0.001859 0.693750
vn 0.511961 -0.000900 0.859008
vn 0.719485 -0.001828 0.694506
vn 0.000578 0.748377 0.663274
vn -0.000589 0.749495 0.662010
vn -0.000265 0.589716 0.807610
vn 0.000265 -0.589717 0.807610
vn 0.000589 -0.749497 0.662008
vn -0.000263 -0.589943 0.807444
vn -0.000578 -0.748375 0.663275
vn 0.283968 -0.323469 0.902624
vn 0.259016 -0.261071 0.929921
vn 0.000824 -0.485784 0.874078
vn 0.000223 -0.023837 0.999716
vn -0.000229 -0.029168 0.999574
vn -0.000833 -0.488183 0.872741
vn -0.443075 0.001478 0.896483
vn -0.069433 0.000290 0.997587
vn -0.444538 -0.001443 0.895759
vn -0.070081 -0.000293 0.997541
vn -0.259015 0.261072 0.929921
vn -0.283969 0.323470 0.902623
vn -0.511961 0.000900 0.859008
vn -0.719485 0.001828 0.694506
vn -0.720214 -0.001859 0.693750
vn -0.511656 -0.000900 0.859190
vn -0.257278 -0.264482 0.929439
vn -0.280914 -0.328235 0.901859
vn -0.279949 -0.328430 0.902088
vn -0.821200 -0.344078 0.455237
vn -0.340046 -0.833585 0.435321
vn 0.274020 -0.333375 0.902094
vn 0.323707 -0.844171 0.427304
vn 0.811562 -0.364430 0.456680
vn -0.274020 0.333375 0.902094
vn -0.323707 0.844171 0.427304
vn -0.811562 0.364430 0.456680
vn 0.279949 0.328430 0.902088
vn 0.821200 0.344078 0.455237
vn 0.340046 0.833585 0.435321
vn -0.325590 0.325226 -0.887817
vn -0.924780 0.268807 -0.269304
vn -0.269551 0.924429 -0.269765
vn 0.924458 0.269505 -0.269712
vn 0.325316 0.325533 -0.887805
vn 0.269001 0.924680 -0.269453
vn -0.269001 -0.924680 -0.269453
vn -0.924458 -0.269505 -0.269712
vn -0.325316 -0.325533 -0.887805
vn 0.924780 -0.268807 -0.269304
vn 0.269551 -0.924429 -0.269765
vn 0.325590 -0.325226 -0.887817
vn 0.777810 0.293831 0.555586
vn 0.301257 0.758704 0.577592
vn 0.274439 0.257246 0.926557
vn -0.300495 0.757444 0.579639
vn -0.776721 0.292901 0.557597
vn -0.272658 0.255431 0.927584
vn -0.777810 -0.293831 0.555586
vn -0.301257 -0.758704 0.577592
vn -0.274439 -0.257246 0.926557
vn 0.300495 -0.757444 0.579639
vn 0.776721 -0.292901 0.557597
vn 0.272658 -0.255431 0.927584
vn 0.072939 0.025955 0.996999
vn 0.437064 0.473729 0.764563
vn 0.440524 -0.470470 0.764589
vn 0.071323 -0.023623 0.997173
vn -0.071323 0.023623 0.997173
vn -0.440524 0.470470 0.764589
vn -0.072939 -0.025955 0.996999
vn -0.437064 -0.473729 0.764563
s 1
g Shell
usemtl lambert3SG
f 1/73/1 81/127/2 2/1/3
f 2/1/3 81/127/2 88/68/4
f 1/73/1 8/63/5 81/127/2
f 81/127/2 8/63/5 82/27/6
s 2
f 4/2/7 3/74/8 22/57/9
f 22/57/9 3/74/8 23/89/10
s 1
f 3/74/11 2/1/3 23/89/12
f 23/89/12 2/1/3 24/6/13
s 4
f 5/75/14 45/106/15 6/3/16
f 6/3/16 45/106/15 50/56/17
s 2
f 5/76/18 4/2/7 45/105/19
f 45/105/19 4/2/7 46/11/20
s 1
f 8/63/5 7/77/21 10/64/22
f 10/64/22 7/77/21 11/81/23
s 4
f 7/78/24 6/3/16 11/80/25
f 11/80/25 6/3/16 12/4/26
s 1
f 9/79/27 113/143/28 10/64/22
f 10/64/22 113/143/28 120/28/29
f 9/79/27 16/65/30 113/143/28
f 113/143/28 16/65/30 114/42/31
s 8
f 13/82/32 51/111/33 14/5/34
f 14/5/34 51/111/33 56/15/35
s 4
f 13/83/36 12/4/26 51/110/37
f 51/110/37 12/4/26 52/16/38
s 1
f 16/65/30 15/84/39 26/66/40
f 26/66/40 15/84/39 27/91/41
s 8
f 15/84/42 14/5/34 27/91/43
f 27/91/43 14/5/34 28/10/44
s 1
f 17/85/45 105/139/46 18/7/47
f 18/7/47 105/139/46 112/67/48
f 17/85/45 24/6/13 105/139/46
f 105/139/46 24/6/13 106/30/49
s 13
f 20/8/50 19/86/51 30/53/52
f 30/53/52 19/86/51 31/94/53
s 1
f 19/86/54 18/7/47 31/94/55
f 31/94/55 18/7/47 32/9/56
s 2
f 21/87/57 35/98/58 22/57/9
f 22/57/9 35/98/58 34/58/59
s 13
f 21/88/60 20/8/50 35/97/61
f 35/97/61 20/8/50 36/12/62
s 1
f 25/90/63 129/151/64 26/66/40
f 26/66/40 129/151/64 136/43/65
f 25/90/63 32/9/56 129/151/64
f 129/151/64 32/9/56 130/40/66
s 13
f 29/92/67 43/104/68 30/53/52
f 30/53/52 43/104/68 42/13/69
s 8
f 29/93/70 28/10/44 43/103/71
f 43/103/71 28/10/44 44/14/72
s 2
f 34/58/59 33/95/73 46/11/20
f 46/11/20 33/95/73 47/108/74
s 19
f 33/96/75 38/54/76 47/107/77
f 47/107/77 38/54/76 48/17/78
f 38/54/76 37/99/79 40/55/80
f 40/55/80 37/99/79 41/102/81
s 13
f 37/99/82 36/12/62 41/102/83
f 41/102/83 36/12/62 42/13/69
s 19
f 40/55/80 39/100/84 54/18/85
f 54/18/85 39/100/84 55/114/86
s 8
f 39/101/87 44/14/72 55/113/88
f 55/113/88 44/14/72 56/15/35
s 4
f 50/56/17 49/109/89 52/16/38
f 52/16/38 49/109/89 53/112/90
s 19
f 49/109/91 48/17/78 53/112/92
f 53/112/92 48/17/78 54/18/85
s 1
f 58/19/93 57/115/94 96/69/95
f 96/69/95 57/115/94 89/131/96
f 62/71/97 90/32/98 57/115/99
f 57/115/99 90/32/98 89/131/100
s 25
f 60/20/101 59/116/102 66/51/103
f 66/51/103 59/116/102 67/120/104
s 1
f 59/116/105 58/19/93 67/120/106
f 67/120/106 58/19/93 68/21/107
f 62/71/97 61/117/108 76/72/109
f 76/72/109 61/117/108 77/125/110
s 25
f 61/117/111 60/20/101 77/125/112
f 77/125/112 60/20/101 78/24/113
s 1
f 64/22/114 63/118/115 128/70/116
f 128/70/116 63/118/115 121/147/117
f 68/21/107 122/34/118 63/118/119
f 63/118/119 122/34/118 121/147/120
s 25
f 66/51/103 65/119/121 72/52/122
f 72/52/122 65/119/121 73/123/123
s 1
f 65/119/124 64/22/114 73/123/125
f 73/123/125 64/22/114 74/23/126
f 70/25/127 69/121/128 144/37/129
f 144/37/129 69/121/128 137/155/130
f 74/23/126 138/46/131 69/121/132
f 69/121/132 138/46/131 137/155/133
s 25
f 72/52/122 71/122/134 78/24/113
f 78/24/113 71/122/134 79/126/135
s 1
f 71/122/136 70/25/127 79/126/137
f 79/126/137 70/25/127 80/26/138
f 76/72/109 75/124/139 104/33/140
f 104/33/140 75/124/139 97/135/141
f 80/26/138 98/36/142 75/124/143
f 75/124/143 98/36/142 97/135/144
f 84/29/145 83/128/146 118/61/147
f 118/61/147 83/128/146 119/146/148
f 83/128/146 82/27/6 119/146/148
f 119/146/148 82/27/6 120/28/29
f 85/129/149 93/133/150 86/31/151
f 86/31/151 93/133/150 92/59/152
f 85/129/149 84/29/145 93/133/150
f 93/133/150 84/29/145 94/35/153
f 88/68/4 87/130/154 106/30/49
f 106/30/49 87/130/154 107/140/155
f 87/130/154 86/31/151 107/140/155
f 107/140/155 86/31/151 108/38/156
f 92/59/152 91/132/157 102/60/158
f 102/60/158 91/132/157 103/138/159
f 91/132/157 90/32/98 103/138/159
f 103/138/159 90/32/98 104/33/140
f 96/69/95 95/134/160 122/34/118
f 122/34/118 95/134/160 123/148/161
f 95/134/160 94/35/153 123/148/161
f 123/148/161 94/35/153 124/44/162
f 100/39/163 99/136/164 142/50/165
f 142/50/165 99/136/164 143/158/166
f 99/136/164 98/36/142 143/158/166
f 143/158/166 98/36/142 144/37/129
f 102/60/158 101/137/167 108/38/156
f 108/38/156 101/137/167 109/141/168
f 100/39/163 110/41/169 101/137/167
f 101/137/167 110/41/169 109/141/168
f 112/67/48 111/142/170 130/40/66
f 130/40/66 111/142/170 131/152/171
f 111/142/170 110/41/169 131/152/171
f 131/152/171 110/41/169 132/49/172
f 116/45/173 115/144/174 134/62/175
f 134/62/175 115/144/174 135/154/176
f 115/144/174 114/42/31 135/154/176
f 135/154/176 114/42/31 136/43/65
f 117/145/177 125/149/178 118/61/147
f 118/61/147 125/149/178 124/44/162
f 117/145/177 116/45/173 125/149/178
f 125/149/178 116/45/173 126/47/179
f 128/70/116 127/150/180 138/46/131
f 138/46/131 127/150/180 139/156/181
f 127/150/180 126/47/179 139/156/181
f 139/156/181 126/47/179 140/48/182
f 133/153/183 141/157/184 134/62/175
f 134/62/175 141/157/184 140/48/182
f 133/153/183 132/49/172 141/157/184
f 141/157/184 132/49/172 142/50/165
s 25
f 60/20/101 66/51/103 78/24/113
f 78/24/113 66/51/103 72/52/122
s 13
f 20/8/50 30/53/52 36/12/62
f 36/12/62 30/53/52 42/13/69
s 19
f 38/54/76 40/55/80 48/17/78
f 48/17/78 40/55/80 54/18/85
s 4
f 50/56/17 52/16/38 6/3/16
f 6/3/16 52/16/38 12/4/26
s 8
f 14/5/34 56/15/35 28/10/44
f 28/10/44 56/15/35 44/14/72
s 2
f 46/11/20 4/2/7 34/58/59
f 34/58/59 4/2/7 22/57/9
s 1
f 86/31/151 92/59/152 108/38/156
f 108/38/156 92/59/152 102/60/158
f 94/35/153 84/29/145 124/44/162
f 124/44/162 84/29/145 118/61/147
f 126/47/179 116/45/173 140/48/182
f 140/48/182 116/45/173 134/62/175
f 142/50/165 132/49/172 100/39/163
f 100/39/163 132/49/172 110/41/169
f 8/63/5 10/64/22 82/27/6
f 82/27/6 10/64/22 120/28/29
f 16/65/30 26/66/40 114/42/31
f 114/42/31 26/66/40 136/43/65
f 32/9/56 18/7/47 130/40/66
f 130/40/66 18/7/47 112/67/48
f 24/6/13 2/1/3 106/30/49
f 106/30/49 2/1/3 88/68/4
f 96/69/95 122/34/118 58/19/93
f 58/19/93 122/34/118 68/21/107
f 128/70/116 138/46/131 64/22/114
f 64/22/114 138/46/131 74/23/126
f 144/37/129 98/36/142 70/25/127
f 70/25/127 98/36/142 80/26/138
f 104/33/140 90/32/98 76/72/109
f 76/72/109 90/32/98 62/71/97
f 8/63/5 1/73/1 7/77/21
f 7/77/21 1/73/1 145/159/185
f 1/73/1 2/1/3 145/159/185
f 145/159/185 2/1/3 3/74/11
s 2
f 3/74/8 4/2/7 145/159/186
f 145/159/186 4/2/7 5/76/18
s 4
f 5/75/14 6/3/16 145/160/187
f 145/160/187 6/3/16 7/78/24
s 1
f 15/84/39 16/65/30 146/162/188
f 146/162/188 16/65/30 9/79/27
f 10/64/22 11/81/23 9/79/27
f 9/79/27 11/81/23 146/162/188
s 4
f 11/80/25 12/4/26 146/161/189
f 146/161/189 12/4/26 13/83/36
s 8
f 13/82/32 14/5/34 146/162/190
f 146/162/190 14/5/34 15/84/42
s 1
f 23/89/12 24/6/13 147/163/191
f 147/163/191 24/6/13 17/85/45
f 18/7/47 19/86/54 17/85/45
f 17/85/45 19/86/54 147/163/191
s 13
f 19/86/51 20/8/50 147/163/192
f 147/163/192 20/8/50 21/88/60
s 2
f 21/87/57 22/57/9 147/163/193
f 147/163/193 22/57/9 23/89/10
s 1
f 32/9/56 25/90/63 31/94/55
f 31/94/55 25/90/63 148/164/194
f 25/90/63 26/66/40 148/164/194
f 148/164/194 26/66/40 27/91/41
s 8
f 27/91/43 28/10/44 148/164/195
f 148/164/195 28/10/44 29/93/70
s 13
f 29/92/67 30/53/52 148/164/196
f 148/164/196 30/53/52 31/94/53
s 19
f 37/99/79 38/54/76 149/166/197
f 149/166/197 38/54/76 33/96/75
s 2
f 34/58/59 35/98/58 33/95/73
f 33/95/73 35/98/58 149/165/198
s 13
f 36/12/62 37/99/82 35/97/61
f 35/97/61 37/99/82 149/166/199
s 8
f 44/14/72 39/101/87 43/103/71
f 43/103/71 39/101/87 150/168/200
s 19
f 39/100/84 40/55/80 150/167/201
f 150/167/201 40/55/80 41/102/81
s 13
f 42/13/69 43/104/68 41/102/83
f 41/102/83 43/104/68 150/167/202
s 4
f 50/56/17 45/106/15 49/109/89
f 49/109/89 45/106/15 151/170/203
s 2
f 46/11/20 47/108/74 45/105/19
f 45/105/19 47/108/74 151/169/204
s 19
f 47/107/77 48/17/78 151/170/205
f 151/170/205 48/17/78 49/109/91
s 8
f 56/15/35 51/111/33 55/113/88
f 55/113/88 51/111/33 152/172/206
s 4
f 52/16/38 53/112/90 51/110/37
f 51/110/37 53/112/90 152/171/207
s 19
f 53/112/92 54/18/85 152/171/208
f 152/171/208 54/18/85 55/114/86
s 1
f 61/117/108 62/71/97 153/173/209
f 153/173/209 62/71/97 57/115/99
f 57/115/94 58/19/93 153/173/210
f 153/173/210 58/19/93 59/116/105
s 25
f 59/116/102 60/20/101 153/173/211
f 153/173/211 60/20/101 61/117/111
s 1
f 67/120/106 68/21/107 154/174/212
f 154/174/212 68/21/107 63/118/119
f 63/118/115 64/22/114 154/174/213
f 154/174/213 64/22/114 65/119/124
s 25
f 65/119/121 66/51/103 154/174/214
f 154/174/214 66/51/103 67/120/104
s 1
f 73/123/125 74/23/126 155/175/215
f 155/175/215 74/23/126 69/121/132
f 69/121/128 70/25/127 155/175/216
f 155/175/216 70/25/127 71/122/136
s 25
f 71/122/134 72/52/122 155/175/217
f 155/175/217 72/52/122 73/123/123
s 1
f 79/126/137 80/26/138 156/176/218
f 156/176/218 80/26/138 75/124/143
f 75/124/139 76/72/109 156/176/219
f 156/176/219 76/72/109 77/125/110
s 25
f 77/125/112 78/24/113 156/176/220
f 156/176/220 78/24/113 79/126/135
s 1
f 87/130/154 88/68/4 157/177/221
f 157/177/221 88/68/4 81/127/2
f 81/127/2 82/27/6 157/177/221
f 157/177/221 82/27/6 83/128/146
f 84/29/145 85/129/149 83/128/146
f 83/128/146 85/129/149 157/177/221
f 86/31/151 87/130/154 85/129/149
f 85/129/149 87/130/154 157/177/221
f 96/69/95 89/131/96 95/134/160
f 95/134/160 89/131/96 158/178/222
f 90/32/98 91/132/157 89/131/100
f 89/131/100 91/132/157 158/178/222
f 91/132/157 92/59/152 158/178/222
f 158/178/222 92/59/152 93/133/150
f 93/133/150 94/35/153 158/178/222
f 158/178/222 94/35/153 95/134/160
f 104/33/140 97/135/141 103/138/159
f 103/138/159 97/135/141 159/179/223
f 98/36/142 99/136/164 97/135/144
f 97/135/144 99/136/164 159/179/223
f 99/136/164 100/39/163 159/179/223
f 159/179/223 100/39/163 101/137/167
f 101/137/167 102/60/158 159/179/223
f 159/179/223 102/60/158 103/138/159
f 111/142/170 112/67/48 160/180/224
f 160/180/224 112/67/48 105/139/46
f 105/139/46 106/30/49 160/180/224
f 160/180/224 106/30/49 107/140/155
f 108/38/156 109/141/168 107/140/155
f 107/140/155 109/141/168 160/180/224
f 110/41/169 111/142/170 109/141/168
f 109/141/168 111/142/170 160/180/224
f 119/146/148 120/28/29 161/181/225
f 161/181/225 120/28/29 113/143/28
f 113/143/28 114/42/31 161/181/225
f 161/181/225 114/42/31 115/144/174
f 116/45/173 117/145/177 115/144/174
f 115/144/174 117/145/177 161/181/225
f 118/61/147 119/146/148 117/145/177
f 117/145/177 119/146/148 161/181/225
f 128/70/116 121/147/117 127/150/180
f 127/150/180 121/147/117 162/182/226
f 122/34/118 123/148/161 121/147/120
f 121/147/120 123/148/161 162/182/226
f 123/148/161 124/44/162 162/182/226
f 162/182/226 124/44/162 125/149/178
f 125/149/178 126/47/179 162/182/226
f 162/182/226 126/47/179 127/150/180
f 135/154/176 136/43/65 163/183/227
f 163/183/227 136/43/65 129/151/64
f 129/151/64 130/40/66 163/183/227
f 163/183/227 130/40/66 131/152/171
f 132/49/172 133/153/183 131/152/171
f 131/152/171 133/153/183 163/183/227
f 134/62/175 135/154/176 133/153/183
f 133/153/183 135/154/176 163/183/227
f 144/37/129 137/155/130 143/158/166
f 143/158/166 137/155/130 164/184/228
f 138/46/131 139/156/181 137/155/133
f 137/155/133 139/156/181 164/184/228
f 139/156/181 140/48/182 164/184/228
f 164/184/228 140/48/182 141/157/184
f 141/157/184 142/50/165 164/184/228
f 164/184/228 142/50/165 143/158/166
g default
v -204.636456 -76.668740 0.500000
v 204.636456 -76.668740 0.500000
v -204.636456 76.668740 0.500000
v 204.636456 76.668740 0.500000
v -204.636456 76.668740 -0.500000
v 204.636456 76.668740 -0.500000
v -204.636456 -76.668740 -0.500000
v 204.636456 -76.668740 -0.500000
vt 0.375000 0.000000
vt 0.625000 0.000000
vt 0.375000 0.250000
vt 0.625000 0.250000
vt 0.375000 0.500000
vt 0.625000 0.500000
vt 0.375000 0.750000
vt 0.625000 0.750000
vt 0.375000 1.000000
vt 0.625000 1.000000
vt 0.875000 0.000000
vt 0.875000 0.250000
vt 0.125000 0.000000
vt 0.125000 0.250000
vn 0.000000 0.000000 1.000000
vn 0.000000 0.000000 1.000000
vn 0.000000 0.000000 1.000000
vn 0.000000 0.000000 1.000000
vn 0.000000 1.000000 0.000000
vn 0.000000 1.000000 0.000000
vn 0.000000 1.000000 0.000000
vn 0.000000 1.000000 0.000000
vn 0.000000 0.000000 -1.000000
vn 0.000000 0.000000 -1.000000
vn 0.000000 0.000000 -1.000000
vn 0.000000 0.000000 -1.000000
vn 0.000000 -1.000000 0.000000
vn 0.000000 -1.000000 0.000000
vn 0.000000 -1.000000 0.000000
vn 0.000000 -1.000000 0.000000
vn 1.000000 0.000000 0.000000
vn 1.000000 0.000000 0.000000
vn 1.000000 0.000000 0.000000
vn 1.000000 0.000000 0.000000
vn -1.000000 0.000000 0.000000
vn -1.000000 0.000000 0.000000
vn -1.000000 0.000000 0.000000
vn -1.000000 0.000000 0.000000
s off
g Mirror
usemtl lambert4SG
f 165/185/229 166/186/230 168/188/231 167/187/232
f 167/187/233 168/188/234 170/190/235 169/189/236
f 169/189/237 170/190/238 172/192/239 171/191/240
f 171/191/241 172/192/242 166/194/243 165/193/244
f 166/186/245 172/195/246 170/196/247 168/188/248
f 171/197/249 165/185/250 167/187/251 169/198/252
