v -204.636456 -76.66874 0.5
v 204.636456 -76.66874 0.5
v 204.636456 76.66874 0.5
v -204.636456 76.66874 0.5
v 204.636456 76.66874 -0.5
v -204.636456 76.66874 -0.5
v 204.636456 -76.66874 -0.5
v -204.636456 -76.66874 -0.5
vn 0.0 0.0 1.0
vn 0.0 0.0 1.0
vn 0.0 0.0 1.0
vn 0.0 0.0 1.0
vn 0.0 1.0 0.0
vn 0.0 1.0 0.0
vn 0.0 1.0 0.0
vn 0.0 1.0 0.0
vn 0.0 0.0 -1.0
vn 0.0 0.0 -1.0
vn 0.0 0.0 -1.0
vn 0.0 0.0 -1.0
vn 0.0 -1.0 0.0
vn 0.0 -1.0 0.0
vn 0.0 -1.0 0.0
vn 0.0 -1.0 0.0
vn 1.0 0.0 0.0
vn 1.0 0.0 0.0
vn 1.0 0.0 0.0
vn 1.0 0.0 0.0
vn -1.0 0.0 0.0
vn -1.0 0.0 0.0
vn -1.0 0.0 0.0
vn -1.0 0.0 0.0
g Mirror
f 1//1 2//2 3//3 4//4
f 4//5 3//6 5//7 6//8
f 6//9 5//10 7//11 8//12
f 8//13 7//14 2//15 1//16
f 2//17 7//18 5//19 3//20
f 8//21 1//22 4//23 6//24
