v -216.506058 -84.855019 3.20525
v -207.209702 -78.584991 5.399998
v -217.013916 -84.334999 3.170126
v -207.507889 -77.765732 5.437314
v -215.279358 -85.069336 3.254491
v -206.488235 -78.923782 5.364591
v -218.0 -84.939812 1.979775
v -217.715332 -84.780563 2.735722
v -218.0 84.959526 1.997537
v -217.717331 84.792648 2.739518
v -217.013916 84.334999 3.170126
v -217.694565 -85.689674 2.004118
v -217.681793 -85.681793 -5.291874
v -216.956512 -86.0 2.028326
v -216.913574 -86.0 -5.291874
v -218.0 -84.913574 -5.291874
v -216.475342 -85.762703 2.748966
v 215.279358 -85.069336 3.254491
v 216.456833 -85.761353 2.744444
v 216.931808 -86.0 2.006868
v 216.506058 -84.855019 3.20525
v 207.209702 -78.584991 5.399998
v 206.488235 -78.923782 5.364591
v 217.013916 -84.334999 3.170126
v 207.507889 -77.765732 5.437314
v 217.687134 -85.695259 2.002189
v 217.681793 -85.681793 -5.291874
v 218.0 -84.959526 1.997537
v 218.0 -84.913574 -5.291874
v 216.913574 -86.0 -5.291874
v 217.717331 -84.792648 2.739518
v 217.013916 84.334999 3.170126
v 217.715332 84.780563 2.735722
v 218.0 84.939812 1.979775
v -216.506058 84.855019 3.20525
v -207.209702 78.584991 5.399998
v -215.279358 85.069336 3.254491
v -206.488235 78.923782 5.364591
v -207.507889 77.765732 5.437314
v -216.931808 86.0 2.006868
v -216.456833 85.761353 2.744444
v 216.956512 86.0 2.028326
v 216.475342 85.762703 2.748966
v 215.279358 85.069336 3.254491
v -217.687134 85.695259 2.002189
v -217.681793 85.681793 -5.291874
v -218.0 84.913574 -5.291874
v -216.913574 86.0 -5.291874
v 216.506058 84.855019 3.20525
v 207.209702 78.584991 5.399998
v 207.507889 77.765732 5.437314
v 206.488235 78.923782 5.364591
v 217.694565 85.689674 2.004118
v 217.681793 85.681793 -5.291874
v 216.913574 86.0 -5.291874
v 218.0 84.913574 -5.291874
v -217.681793 84.912155 -6.060085
v -217.681793 -84.912766 -6.060089
v -216.913574 84.913574 -6.378295
v -216.913574 -84.913574 -6.378295
v -216.91301 85.681793 -6.06009
v 216.913574 84.913574 -6.378295
v 216.912262 85.681793 -6.060086
v 217.681793 84.912766 -6.060089
v 216.913574 -84.913574 -6.378295
v 217.681793 -84.912155 -6.060085
v -216.912262 -85.681793 -6.060086
v 216.91301 -85.681793 -6.06009
v -200.389999 -73.608269 0.383292
v -201.161346 -73.308601 0.420637
v -200.938721 -74.245995 2.248385
v -201.667999 -73.931587 2.230613
v -201.48024 -72.583534 0.457038
v -201.969925 -73.172173 2.212541
v -200.251678 -72.344444 -0.503551
v -200.263885 -73.12925 -0.252029
v 200.245529 -72.338295 -0.503551
v 200.260681 -73.12722 -0.252295
v 200.389999 -73.608269 0.383292
v -201.022552 -72.394943 -0.230649
v -201.48024 72.583534 0.457038
v -201.020538 72.391678 -0.230975
v -200.245529 72.338295 -0.503551
v 201.48024 -72.583534 0.457038
v 201.161346 -73.308601 0.420637
v 201.969925 -73.172173 2.212541
v 201.667999 -73.931587 2.230613
v 200.938721 -74.245995 2.248385
v 201.020538 -72.391678 -0.230975
v 200.251678 72.344444 -0.503551
v 201.022552 72.394943 -0.230649
v 201.48024 72.583534 0.457038
v 200.389999 73.608269 0.383292
v 201.161346 73.308601 0.420637
v 200.938721 74.245995 2.248385
v 201.667999 73.931587 2.230613
v 201.969925 73.172173 2.212541
v 200.263885 73.12925 -0.252029
v -200.260681 73.12722 -0.252295
v -200.389999 73.608269 0.383292
v -201.161346 73.308601 0.420637
v -201.969925 73.172173 2.212541
v -201.667999 73.931587 2.230613
v -200.938721 74.245995 2.248385
v -204.648834 -77.479202 5.116699
v -205.529343 -78.197853 5.421376
v 204.726456 -77.505234 5.135305
v 205.567627 -78.207825 5.423777
v -205.62207 -77.217819 5.163627
v -202.600296 -74.857521 3.443637
v -206.024628 -76.584373 5.203032
v -202.916245 -74.058762 3.407812
v -201.836197 -75.187805 3.478821
v -206.756332 -77.190727 5.469453
v -206.757645 77.196037 5.469583
v -206.02919 76.594498 5.205671
v -202.314316 -73.529961 2.890777
v -202.927277 74.052124 3.414188
v -202.319931 73.526161 2.895021
v -201.274292 -74.643478 2.963011
v 201.276154 -74.637985 2.957761
v 201.842026 -75.176308 3.470602
v -201.842026 75.176308 3.470602
v -201.276154 74.637985 2.957761
v 201.836197 75.187805 3.478821
v 201.274292 74.643478 2.963011
v -202.609711 74.847275 3.442605
v -205.647934 77.238998 5.173076
v -204.726456 77.505234 5.135305
v -205.567627 78.207825 5.423777
v 205.529343 78.197853 5.421376
v 204.648834 77.479202 5.116699
v 206.02919 -76.594498 5.205671
v 206.757645 -77.196037 5.469583
v 206.024628 76.584373 5.203032
v 206.756332 77.190727 5.469453
v 205.647934 -77.238998 5.173076
v 202.609711 -74.847275 3.442605
v 202.927277 -74.052124 3.414188
v 202.319931 -73.526161 2.895021
v 202.314316 73.529961 2.890777
v 202.916245 74.058762 3.407812
v 205.62207 77.217819 5.163627
v 202.600296 74.857521 3.443637
v -217.357849 -85.463303 2.74249
v 217.353439 -85.466064 2.742298
v -217.353439 85.466064 2.742298
v 217.357849 85.463303 2.74249
v -217.54039 85.540054 -5.918925
v 217.540085 85.540291 -5.918928
v -217.540085 -85.540291 -5.918928
v 217.54039 -85.540054 -5.918925
v -200.900589 -73.019341 -0.123974
v 200.899124 -73.017845 -0.124298
v 200.900589 73.019341 -0.123974
v -200.899124 73.017845 -0.124298
v -206.398239 -77.90789 5.446178
v -202.008286 -74.3172 2.926383
v -202.012527 74.311401 2.925157
v -206.4095 77.916786 5.447454
v 206.4095 -77.916786 5.447454
v 202.012527 -74.311401 2.925157
v 206.398239 77.90789 5.446178
v 202.008286 74.3172 2.926383
vn -0.144603 -0.17826 0.9733
vn -0.110685 -0.163171 0.980369
vn -0.282917 -0.000821 0.959144
vn -0.225837 -0.000416 0.974165
vn -0.000718 -0.423 0.906129
vn -7e-05 -0.318288 0.947994
vn -0.999669 -0.001994 0.025667
vn -0.935739 -0.001495 0.352691
vn -0.999678 0.002072 0.025284
vn -0.934375 0.001446 0.356289
vn -0.525707 -0.00178 0.850664
vn -0.521256 0.001832 0.853398
vn -0.27902 0.000767 0.960285
vn -0.388207 -0.921194 0.026403
vn -0.381763 -0.924034 -0.020441
vn -0.000848 -0.999949 0.010031
vn -0.000673 -0.999277 -0.038019
vn -0.925778 -0.375739 0.041893
vn -0.926022 -0.376926 -0.02027
vn -0.999249 -0.001755 -0.038717
vn -0.001655 -0.587568 0.809173
vn 0.00074 -0.427535 0.903999
vn 0.001615 -0.591749 0.806121
vn -0.000191 -0.949798 0.312864
vn 0.000209 -0.951394 0.307977
vn 0.000814 -0.999949 0.010098
vn 0.144545 -0.178905 0.973191
vn 0.110832 -0.163301 0.980331
vn 7.3e-05 -0.318069 0.948068
vn 0.27902 -0.000767 0.960285
vn 0.226325 -0.000385 0.974052
vn 0.919498 -0.390761 0.042762
vn 0.923298 -0.383542 -0.020413
vn 0.999678 -0.002072 0.025284
vn 0.999274 -0.001706 -0.038048
vn 0.374174 -0.927002 0.025715
vn 0.37542 -0.926639 -0.020009
vn 0.000697 -0.999245 -0.038843
vn 0.521257 -0.001832 0.853398
vn 0.282917 0.000821 0.959144
vn 0.525707 0.00178 0.850664
vn 0.934374 -0.001446 0.356289
vn 0.935739 0.001495 0.352691
vn 0.999669 0.001994 0.025667
vn -0.144545 0.178905 0.973191
vn -0.110832 0.163301 0.980331
vn -0.00074 0.427535 0.903999
vn -7.3e-05 0.318069 0.948068
vn -0.226325 0.000385 0.974052
vn -0.000814 0.999949 0.010099
vn -0.000209 0.951397 0.307968
vn 0.000848 0.999949 0.01003
vn 0.000191 0.949797 0.312867
vn -0.001615 0.591748 0.806121
vn 0.001655 0.587568 0.809174
vn 0.000718 0.423 0.906129
vn -0.919498 0.390761 0.042762
vn -0.923298 0.383542 -0.020413
vn -0.999274 0.001706 -0.038048
vn -0.374174 0.927002 0.025715
vn -0.37542 0.926639 -0.020009
vn -0.000697 0.999245 -0.038843
vn 0.144603 0.17826 0.9733
vn 0.110685 0.163171 0.980369
vn 0.225837 0.000416 0.974165
vn 7e-05 0.318288 0.947994
vn 0.388207 0.921194 0.026403
vn 0.381763 0.924034 -0.020441
vn 0.000673 0.999277 -0.03802
vn 0.925778 0.375739 0.041893
vn 0.926022 0.376926 -0.02027
vn 0.999249 0.001755 -0.038717
vn -0.923893 0.001799 -0.382647
vn -0.923894 -0.001804 -0.382644
vn -0.382688 0.000929 -0.923877
vn -0.00073 0.001863 -0.999998
vn -0.382684 -0.00093 -0.923879
vn -0.000731 -0.001862 -0.999998
vn -0.000365 0.382684 -0.923879
vn 0.000731 0.001862 -0.999998
vn 0.000364 0.382689 -0.923877
vn -0.000709 0.923877 -0.382689
vn 0.000707 0.923891 -0.382656
vn 0.382684 0.00093 -0.923879
vn 0.00073 -0.001863 -0.999998
vn 0.382688 -0.000929 -0.923877
vn 0.923894 0.001804 -0.382644
vn 0.923893 -0.001799 -0.382647
vn -0.000707 -0.923892 -0.382653
vn 0.000709 -0.92388 -0.382681
vn -0.000364 -0.382686 -0.923878
vn 0.000365 -0.382681 -0.923881
vn 0.000425 0.925208 0.379461
vn 0.34832 0.836317 0.423376
vn 0.000931 0.912521 0.409029
vn 0.340215 0.81794 0.463926
vn 0.94626 0.001069 0.323405
vn 0.926044 0.003 0.377403
vn 0.850805 0.350359 0.391638
vn 0.824547 0.340187 0.452101
vn 0.000707 0.001745 0.999998
vn 0.000348 0.305194 0.95229
vn -0.000707 0.001747 0.999998
vn -0.000355 0.303451 0.952847
vn 0.00033 0.798433 0.602083
vn -0.00033 0.797337 0.603534
vn -0.000427 0.925056 0.379831
vn 0.832381 0.000774 0.554204
vn 0.94635 -0.001065 0.323141
vn 0.831377 -0.000779 0.555708
vn 0.333667 0.00093 0.942691
vn 0.331732 -0.00095 0.943373
vn 0.000707 -0.001747 0.999998
vn -0.94635 0.001065 0.323141
vn -0.850663 0.350281 0.392014
vn -0.92536 0.002991 0.379078
vn -0.824504 0.339645 0.452587
vn -0.000934 0.913104 0.407726
vn -0.348271 0.836136 0.423773
vn -0.340845 0.817933 0.463476
vn -0.331732 0.00095 0.943373
vn -0.000707 -0.001745 0.999998
vn -0.333667 -0.00093 0.942691
vn -0.831377 0.000779 0.555708
vn -0.832381 -0.000774 0.554204
vn -0.94626 -0.001069 0.323405
vn -0.000425 -0.925208 0.379461
vn -0.34832 -0.836317 0.423376
vn -0.000931 -0.91252 0.40903
vn -0.340215 -0.81794 0.463926
vn -0.926044 -0.003 0.377403
vn -0.850805 -0.350359 0.391638
vn -0.824547 -0.340187 0.452101
vn -0.000348 -0.305194 0.95229
vn 0.000355 -0.303451 0.952847
vn -0.00033 -0.798433 0.602083
vn 0.00033 -0.797337 0.603534
vn 0.000427 -0.925056 0.379831
vn 0.850663 -0.350281 0.392014
vn 0.92536 -0.002991 0.379078
vn 0.824504 -0.339645 0.452587
vn 0.000934 -0.913104 0.407726
vn 0.348271 -0.836136 0.423773
vn 0.340845 -0.817933 0.463476
vn 0.000833 0.488182 0.872741
vn 0.000229 0.029168 0.999574
vn -0.000824 0.485785 0.874078
vn -0.000223 0.023837 0.999716
vn 0.257278 0.264482 0.929439
vn 0.280914 0.328235 0.901859
vn 0.444538 0.001443 0.895759
vn 0.511656 0.0009 0.85919
vn 0.000263 0.589944 0.807444
vn 0.070081 0.000293 0.997541
vn 0.069433 -0.00029 0.997587
vn 0.443075 -0.001478 0.896483
vn 0.720214 0.001859 0.69375
vn 0.511961 -0.0009 0.859008
vn 0.719485 -0.001828 0.694506
vn 0.000578 0.748377 0.663274
vn -0.000589 0.749495 0.66201
vn -0.000265 0.589716 0.80761
vn 0.000265 -0.589717 0.80761
vn 0.000589 -0.749497 0.662008
vn -0.000263 -0.589943 0.807444
vn -0.000578 -0.748375 0.663275
vn 0.283968 -0.323469 0.902624
vn 0.259016 -0.261071 0.929921
vn 0.000824 -0.485784 0.874078
vn 0.000223 -0.023837 0.999716
vn -0.000229 -0.029168 0.999574
vn -0.000833 -0.488183 0.872741
vn -0.443075 0.001478 0.896483
vn -0.069433 0.00029 0.997587
vn -0.444538 -0.001443 0.895759
vn -0.070081 -0.000293 0.997541
vn -0.259015 0.261072 0.929921
vn -0.283969 0.32347 0.902623
vn -0.511961 0.0009 0.859008
vn -0.719485 0.001828 0.694506
vn -0.720214 -0.001859 0.69375
vn -0.511656 -0.0009 0.85919
vn -0.257278 -0.264482 0.929439
vn -0.280914 -0.328235 0.901859
vn -0.279949 -0.32843 0.902088
vn -0.8212 -0.344078 0.455237
vn -0.340046 -0.833585 0.435321
vn 0.27402 -0.333375 0.902094
vn 0.323707 -0.844171 0.427304
vn 0.811562 -0.36443 0.45668
vn -0.27402 0.333375 0.902094
vn -0.323707 0.844171 0.427304
vn -0.811562 0.36443 0.45668
vn 0.279949 0.32843 0.902088
vn 0.8212 0.344078 0.455237
vn 0.340046 0.833585 0.435321
vn -0.32559 0.325226 -0.887817
vn -0.92478 0.268807 -0.269304
vn -0.269551 0.924429 -0.269765
vn 0.924458 0.269505 -0.269712
vn 0.325316 0.325533 -0.887805
vn 0.269001 0.92468 -0.269453
vn -0.269001 -0.92468 -0.269453
vn -0.924458 -0.269505 -0.269712
vn -0.325316 -0.325533 -0.887805
vn 0.92478 -0.268807 -0.269304
vn 0.269551 -0.924429 -0.269765
vn 0.32559 -0.325226 -0.887817
vn 0.77781 0.293831 0.555586
vn 0.301257 0.758704 0.577592
vn 0.274439 0.257246 0.926557
vn -0.300495 0.757444 0.579639
vn -0.776721 0.292901 0.557597
vn -0.272658 0.255431 0.927584
vn -0.77781 -0.293831 0.555586
vn -0.301257 -0.758704 0.577592
vn -0.274439 -0.257246 0.926557
vn 0.300495 -0.757444 0.579639
vn 0.776721 -0.292901 0.557597
vn 0.272658 -0.255431 0.927584
vn 0.072939 0.025955 0.996999
vn 0.437064 0.473729 0.764563
vn 0.440524 -0.47047 0.764589
vn 0.071323 -0.023623 0.997173
vn -0.071323 0.023623 0.997173
vn -0.440524 0.47047 0.764589
vn -0.072939 -0.025955 0.996999
vn -0.437064 -0.473729 0.764563
g Shell
f 1//1 2//2 3//3
f 3//3 2//2 4//4
f 1//1 5//5 2//2
f 2//2 5//5 6//6
f 7//7 8//8 9//9
f 9//9 8//8 10//10
f 8//11 3//3 10//12
f 10//12 3//3 11//13
f 12//14 13//15 14//16
f 14//16 13//15 15//17
f 12//18 7//7 13//19
f 13//19 7//7 16//20
f 5//5 17//21 18//22
f 18//22 17//21 19//23
f 17//24 14//16 19//25
f 19//25 14//16 20//26
f 21//27 22//28 18//22
f 18//22 22//28 23//29
f 21//27 24//30 22//28
f 22//28 24//30 25//31
f 26//32 27//33 28//34
f 28//34 27//33 29//35
f 26//36 20//26 27//37
f 27//37 20//26 30//38
f 24//30 31//39 32//40
f 32//40 31//39 33//41
f 31//42 28//34 33//43
f 33//43 28//34 34//44
f 35//45 36//46 37//47
f 37//47 36//46 38//48
f 35//45 11//13 36//46
f 36//46 11//13 39//49
f 40//50 41//51 42//52
f 42//52 41//51 43//53
f 41//54 37//47 43//55
f 43//55 37//47 44//56
f 45//57 46//58 9//9
f 9//9 46//58 47//59
f 45//60 40//50 46//61
f 46//61 40//50 48//62
f 49//63 50//64 32//40
f 32//40 50//64 51//65
f 49//63 44//56 50//64
f 50//64 44//56 52//66
f 53//67 54//68 42//52
f 42//52 54//68 55//69
f 53//70 34//44 54//71
f 54//71 34//44 56//72
f 47//59 57//73 16//20
f 16//20 57//73 58//74
f 57//75 59//76 58//77
f 58//77 59//76 60//78
f 59//76 61//79 62//80
f 62//80 61//79 63//81
f 61//82 48//62 63//83
f 63//83 48//62 55//69
f 62//80 64//84 65//85
f 65//85 64//84 66//86
f 64//87 56//72 66//88
f 66//88 56//72 29//35
f 15//17 67//89 30//38
f 30//38 67//89 68//90
f 67//91 60//78 68//92
f 68//92 60//78 65//85
f 69//93 70//94 71//95
f 71//95 70//94 72//96
f 73//97 74//98 70//99
f 70//99 74//98 72//100
f 75//101 76//102 77//103
f 77//103 76//102 78//104
f 76//105 69//93 78//106
f 78//106 69//93 79//107
f 73//97 80//108 81//109
f 81//109 80//108 82//110
f 80//111 75//101 82//112
f 82//112 75//101 83//113
f 84//114 85//115 86//116
f 86//116 85//115 87//117
f 79//107 88//118 85//119
f 85//119 88//118 87//120
f 77//103 89//121 90//122
f 90//122 89//121 91//123
f 89//124 84//114 91//125
f 91//125 84//114 92//126
f 93//127 94//128 95//129
f 95//129 94//128 96//130
f 92//126 97//131 94//132
f 94//132 97//131 96//133
f 90//122 98//134 83//113
f 83//113 98//134 99//135
f 98//136 93//127 99//137
f 99//137 93//127 100//138
f 81//109 101//139 102//140
f 102//140 101//139 103//141
f 100//138 104//142 101//143
f 101//143 104//142 103//144
f 105//145 106//146 107//147
f 107//147 106//146 108//148
f 106//146 6//6 108//148
f 108//148 6//6 23//29
f 109//149 110//150 111//151
f 111//151 110//150 112//152
f 109//149 105//145 110//150
f 110//150 105//145 113//153
f 4//4 114//154 39//49
f 39//49 114//154 115//155
f 114//154 111//151 115//155
f 115//155 111//151 116//156
f 112//152 117//157 118//158
f 118//158 117//157 119//159
f 117//157 74//98 119//159
f 119//159 74//98 102//140
f 71//95 120//160 88//118
f 88//118 120//160 121//161
f 120//160 113//153 121//161
f 121//161 113//153 122//162
f 123//163 124//164 125//165
f 125//165 124//164 126//166
f 124//164 104//142 126//166
f 126//166 104//142 95//129
f 118//158 127//167 116//156
f 116//156 127//167 128//168
f 123//163 129//169 127//167
f 127//167 129//169 128//168
f 38//48 130//170 52//66
f 52//66 130//170 131//171
f 130//170 129//169 131//171
f 131//171 129//169 132//172
f 133//173 134//174 135//175
f 135//175 134//174 136//176
f 134//174 25//31 136//176
f 136//176 25//31 51//65
f 137//177 138//178 107//147
f 107//147 138//178 122//162
f 137//177 133//173 138//178
f 138//178 133//173 139//179
f 86//116 140//180 97//131
f 97//131 140//180 141//181
f 140//180 139//179 141//181
f 141//181 139//179 142//182
f 143//183 144//184 135//175
f 135//175 144//184 142//182
f 143//183 132//172 144//184
f 144//184 132//172 125//165
f 75//101 77//103 83//113
f 83//113 77//103 90//122
f 40//50 42//52 48//62
f 48//62 42//52 55//69
f 59//76 62//80 60//78
f 60//78 62//80 65//85
f 15//17 30//38 14//16
f 14//16 30//38 20//26
f 28//34 29//35 34//44
f 34//44 29//35 56//72
f 16//20 7//7 47//59
f 47//59 7//7 9//9
f 111//151 112//152 116//156
f 116//156 112//152 118//158
f 113//153 105//145 122//162
f 122//162 105//145 107//147
f 139//179 133//173 142//182
f 142//182 133//173 135//175
f 125//165 132//172 123//163
f 123//163 132//172 129//169
f 5//5 18//22 6//6
f 6//6 18//22 23//29
f 24//30 32//40 25//31
f 25//31 32//40 51//65
f 44//56 37//47 52//66
f 52//66 37//47 38//48
f 11//13 3//3 39//49
f 39//49 3//3 4//4
f 71//95 88//118 69//93
f 69//93 88//118 79//107
f 86//116 97//131 84//114
f 84//114 97//131 92//126
f 95//129 104//142 93//127
f 93//127 104//142 100//138
f 102//140 74//98 81//109
f 81//109 74//98 73//97
f 5//5 1//1 17//21
f 17//21 1//1 145//185
f 1//1 3//3 145//185
f 145//185 3//3 8//11
f 8//8 7//7 145//186
f 145//186 7//7 12//18
f 12//14 14//16 145//187
f 145//187 14//16 17//24
f 31//39 24//30 146//188
f 146//188 24//30 21//27
f 18//22 19//23 21//27
f 21//27 19//23 146//188
f 19//25 20//26 146//189
f 146//189 20//26 26//36
f 26//32 28//34 146//190
f 146//190 28//34 31//42
f 10//12 11//13 147//191
f 147//191 11//13 35//45
f 37//47 41//54 35//45
f 35//45 41//54 147//191
f 41//51 40//50 147//192
f 147//192 40//50 45//60
f 45//57 9//9 147//193
f 147//193 9//9 10//10
f 44//56 49//63 43//55
f 43//55 49//63 148//194
f 49//63 32//40 148//194
f 148//194 32//40 33//41
f 33//43 34//44 148//195
f 148//195 34//44 53//70
f 53//67 42//52 148//196
f 148//196 42//52 43//53
f 61//79 59//76 149//197
f 149//197 59//76 57//75
f 47//59 46//58 57//73
f 57//73 46//58 149//198
f 48//62 61//82 46//61
f 46//61 61//82 149//199
f 56//72 64//87 54//71
f 54//71 64//87 150//200
f 64//84 62//80 150//201
f 150//201 62//80 63//81
f 55//69 54//68 63//83
f 63//83 54//68 150//202
f 15//17 13//15 67//89
f 67//89 13//15 151//203
f 16//20 58//74 13//19
f 13//19 58//74 151//204
f 58//77 60//78 151//205
f 151//205 60//78 67//91
f 29//35 27//33 66//88
f 66//88 27//33 152//206
f 30//38 68//90 27//37
f 27//37 68//90 152//207
f 68//92 65//85 152//208
f 152//208 65//85 66//86
f 80//108 73//97 153//209
f 153//209 73//97 70//99
f 70//94 69//93 153//210
f 153//210 69//93 76//105
f 76//102 75//101 153//211
f 153//211 75//101 80//111
f 78//106 79//107 154//212
f 154//212 79//107 85//119
f 85//115 84//114 154//213
f 154//213 84//114 89//124
f 89//121 77//103 154//214
f 154//214 77//103 78//104
f 91//125 92//126 155//215
f 155//215 92//126 94//132
f 94//128 93//127 155//216
f 155//216 93//127 98//136
f 98//134 90//122 155//217
f 155//217 90//122 91//123
f 99//137 100//138 156//218
f 156//218 100//138 101//143
f 101//139 81//109 156//219
f 156//219 81//109 82//110
f 82//112 83//113 156//220
f 156//220 83//113 99//135
f 114//154 4//4 157//221
f 157//221 4//4 2//2
f 2//2 6//6 157//221
f 157//221 6//6 106//146
f 105//145 109//149 106//146
f 106//146 109//149 157//221
f 111//151 114//154 109//149
f 109//149 114//154 157//221
f 71//95 72//96 120//160
f 120//160 72//96 158//222
f 74//98 117//157 72//100
f 72//100 117//157 158//222
f 117//157 112//152 158//222
f 158//222 112//152 110//150
f 110//150 113//153 158//222
f 158//222 113//153 120//160
f 102//140 103//141 119//159
f 119//159 103//141 159//223
f 104//142 124//164 103//144
f 103//144 124//164 159//223
f 124//164 123//163 159//223
f 159//223 123//163 127//167
f 127//167 118//158 159//223
f 159//223 118//158 119//159
f 130//170 38//48 160//224
f 160//224 38//48 36//46
f 36//46 39//49 160//224
f 160//224 39//49 115//155
f 116//156 128//168 115//155
f 115//155 128//168 160//224
f 129//169 130//170 128//168
f 128//168 130//170 160//224
f 108//148 23//29 161//225
f 161//225 23//29 22//28
f 22//28 25//31 161//225
f 161//225 25//31 134//174
f 133//173 137//177 134//174
f 134//174 137//177 161//225
f 107//147 108//148 137//177
f 137//177 108//148 161//225
f 86//116 87//117 140//180
f 140//180 87//117 162//226
f 88//118 121//161 87//120
f 87//120 121//161 162//226
f 121//161 122//162 162//226
f 162//226 122//162 138//178
f 138//178 139//179 162//226
f 162//226 139//179 140//180
f 136//176 51//65 163//227
f 163//227 51//65 50//64
f 50//64 52//66 163//227
f 163//227 52//66 131//171
f 132//172 143//183 131//171
f 131//171 143//183 163//227
f 135//175 136//176 143//183
f 143//183 136//176 163//227
f 95//129 96//130 126//166
f 126//166 96//130 164//228
f 97//131 141//181 96//133
f 96//133 141//181 164//228
f 141//181 142//182 164//228
f 164//228 142//182 144//184
f 144//184 125//165 164//228
f 164//228 125//165 126//166
